<mxfile host="app.diagrams.net" modified="2023-03-30T14:03:09.840Z" agent="5.0 (X11)" etag="Kv5TxTzACJ4qxUL8zaOI" version="20.8.23" type="github">
  <diagram id="2f404044-711c-603c-8f00-f6bb4c023d3c" name="Page-1">
    <mxGraphModel dx="1560" dy="838" grid="1" gridSize="10" guides="1" tooltips="1" connect="1" arrows="1" fold="1" page="1" pageScale="1" pageWidth="1169" pageHeight="827" background="none" math="0" shadow="0">
      <root>
        <mxCell id="0" />
        <mxCell id="1" parent="0" />
        <mxCell id="21" value="" style="swimlane;shadow=0;strokeColor=#4277BB;fillColor=#ffffff;fontColor=none;align=right;startSize=0;collapsible=0;noLabel=1;strokeWidth=3;" parent="1" vertex="1">
          <mxGeometry x="65" y="49" width="1040" height="730" as="geometry" />
        </mxCell>
        <mxCell id="33" style="edgeStyle=orthogonalEdgeStyle;rounded=0;html=1;labelBackgroundColor=#ffffff;jettySize=auto;orthogonalLoop=1;strokeColor=#EDC11C;fontColor=#000000;startArrow=classic;strokeWidth=2;endSize=4;startSize=4;" parent="21" source="14" target="15" edge="1">
          <mxGeometry relative="1" as="geometry" />
        </mxCell>
        <mxCell id="34" style="edgeStyle=orthogonalEdgeStyle;rounded=0;html=1;entryX=1;entryY=0.25;labelBackgroundColor=#ffffff;jettySize=auto;orthogonalLoop=1;strokeColor=#EDC11C;fontColor=#000000;startArrow=classic;strokeWidth=2;endSize=4;startSize=4;" parent="21" source="14" target="13" edge="1">
          <mxGeometry relative="1" as="geometry">
            <mxPoint x="859.7058823529414" y="266.82352941176475" as="targetPoint" />
            <Array as="points">
              <mxPoint x="963" y="267" />
            </Array>
          </mxGeometry>
        </mxCell>
        <mxCell id="35" style="edgeStyle=orthogonalEdgeStyle;rounded=0;html=1;entryX=1;entryY=0.5;labelBackgroundColor=#ffffff;jettySize=auto;orthogonalLoop=1;strokeColor=#4277BB;fontColor=#000000;strokeWidth=2;endSize=4;startSize=4;" parent="21" source="16" target="13" edge="1">
          <mxGeometry relative="1" as="geometry">
            <mxPoint x="863.2352941176473" y="279.7647058823529" as="targetPoint" />
            <Array as="points">
              <mxPoint x="913" y="470" />
              <mxPoint x="913" y="280" />
            </Array>
          </mxGeometry>
        </mxCell>
        <mxCell id="37" style="edgeStyle=orthogonalEdgeStyle;rounded=0;html=1;labelBackgroundColor=#ffffff;jettySize=auto;orthogonalLoop=1;strokeColor=#4277BB;fontColor=#000000;strokeWidth=2;endSize=4;startSize=4;startArrow=classic;startFill=1;" parent="21" source="16" target="17" edge="1">
          <mxGeometry relative="1" as="geometry" />
        </mxCell>
        <mxCell id="36" style="edgeStyle=orthogonalEdgeStyle;rounded=0;html=1;entryX=1;entryY=0.75;labelBackgroundColor=#ffffff;jettySize=auto;orthogonalLoop=1;strokeColor=#4277BB;fontColor=#000000;strokeWidth=2;endSize=4;startSize=4;startArrow=classic;startFill=1;" parent="21" source="17" target="13" edge="1">
          <mxGeometry relative="1" as="geometry">
            <mxPoint x="859.7058823529414" y="292.7058823529412" as="targetPoint" />
            <Array as="points">
              <mxPoint x="893" y="620" />
              <mxPoint x="893" y="293" />
            </Array>
          </mxGeometry>
        </mxCell>
        <mxCell id="13" value="TRANSFORMATION &amp;amp;&lt;div&gt;CONNECTIVITY&lt;/div&gt;" style="aspect=fixed;perimeter=ellipsePerimeter;html=1;align=center;shadow=0;dashed=0;image;image=img/lib/ibm/infrastructure/transformation_connectivity.svg;strokeColor=#FF0000;fillColor=#FFFF66;gradientColor=none;fontColor=#4277BB;labelBackgroundColor=#ffffff;spacingTop=3;" parent="21" vertex="1">
          <mxGeometry x="790" y="250" width="60" height="60" as="geometry" />
        </mxCell>
        <mxCell id="14" value="ENTERPRISE&lt;div&gt;USER&lt;/div&gt;" style="aspect=fixed;perimeter=ellipsePerimeter;html=1;align=center;shadow=0;dashed=0;image;image=img/lib/ibm/users/user.svg;strokeColor=#FF0000;fillColor=#FFFF66;gradientColor=none;fontColor=#4277BB;labelBackgroundColor=#ffffff;spacingTop=3;" parent="21" vertex="1">
          <mxGeometry x="933" y="100" width="60" height="60" as="geometry" />
        </mxCell>
        <mxCell id="15" value="ENTERPRISE&lt;div&gt;APPLICATIONS&lt;/div&gt;" style="aspect=fixed;perimeter=ellipsePerimeter;html=1;align=center;shadow=0;dashed=0;image;image=img/lib/ibm/applications/enterprise_applications.svg;strokeColor=#FF0000;fillColor=#FFFF66;gradientColor=none;fontColor=#4277BB;labelBackgroundColor=#ffffff;spacingTop=3;" parent="21" vertex="1">
          <mxGeometry x="933" y="320" width="60" height="60" as="geometry" />
        </mxCell>
        <mxCell id="16" value="ENTERPRISE&lt;div&gt;DATA&lt;/div&gt;" style="aspect=fixed;perimeter=ellipsePerimeter;html=1;align=center;shadow=0;dashed=0;image;image=img/lib/ibm/data/enterprise_data.svg;strokeColor=#FF0000;fillColor=#FFFF66;gradientColor=none;fontColor=#4277BB;labelBackgroundColor=#ffffff;spacingTop=3;" parent="21" vertex="1">
          <mxGeometry x="933" y="440" width="60" height="60" as="geometry" />
        </mxCell>
        <mxCell id="17" value="ENTERPRISE&lt;div&gt;USER DIRECTORY&lt;/div&gt;" style="aspect=fixed;perimeter=ellipsePerimeter;html=1;align=center;shadow=0;dashed=0;image;image=img/lib/ibm/data/enterprise_user_directory.svg;strokeColor=#FF0000;fillColor=#FFFF66;gradientColor=none;fontColor=#4277BB;labelBackgroundColor=#ffffff;spacingTop=3;" parent="21" vertex="1">
          <mxGeometry x="933" y="590" width="60" height="60" as="geometry" />
        </mxCell>
        <mxCell id="39" value="" style="swimlane;shadow=0;labelBackgroundColor=#007FFF;strokeColor=#4277BB;fillColor=none;gradientColor=none;fontColor=#000000;align=right;collapsible=0;startSize=0;strokeWidth=3;" parent="21" vertex="1">
          <mxGeometry x="210" y="590" width="650" height="120" as="geometry" />
        </mxCell>
        <mxCell id="12" value="DATA" style="aspect=fixed;perimeter=ellipsePerimeter;html=1;align=center;shadow=0;dashed=0;image;image=img/lib/ibm/data/device_registry.svg;strokeColor=#FF0000;fillColor=#FFFF66;gradientColor=none;fontColor=#4277BB;labelBackgroundColor=#ffffff;spacingTop=3;" parent="39" vertex="1">
          <mxGeometry x="309.5" y="41" width="60" height="60" as="geometry" />
        </mxCell>
        <mxCell id="59" value="DATABASE LAYER" style="text;html=1;align=left;verticalAlign=middle;fontColor=#4277BB;shadow=0;dashed=0;strokeColor=none;fillColor=none;labelBackgroundColor=none;fontStyle=1;fontSize=14;spacingLeft=0;" parent="39" vertex="1">
          <mxGeometry x="15" y="10" width="150" height="20" as="geometry" />
        </mxCell>
        <mxCell id="EjRFLkqe3DR_ftD8AzSj-86" value="DATA" style="aspect=fixed;perimeter=ellipsePerimeter;html=1;align=center;shadow=0;dashed=0;image;image=img/lib/ibm/data/device_registry.svg;strokeColor=#FF0000;fillColor=#FFFF66;gradientColor=none;fontColor=#4277BB;labelBackgroundColor=#ffffff;spacingTop=3;" vertex="1" parent="39">
          <mxGeometry x="565" y="41" width="60" height="60" as="geometry" />
        </mxCell>
        <mxCell id="EjRFLkqe3DR_ftD8AzSj-87" value="DATA" style="aspect=fixed;perimeter=ellipsePerimeter;html=1;align=center;shadow=0;dashed=0;image;image=img/lib/ibm/data/device_registry.svg;strokeColor=#FF0000;fillColor=#FFFF66;gradientColor=none;fontColor=#4277BB;labelBackgroundColor=#ffffff;spacingTop=3;" vertex="1" parent="39">
          <mxGeometry x="60" y="41" width="60" height="60" as="geometry" />
        </mxCell>
        <mxCell id="22" value="PUBLIC NETWORK" style="text;html=1;align=left;verticalAlign=middle;fontColor=#4277BB;shadow=0;dashed=0;strokeColor=none;fillColor=none;labelBackgroundColor=none;fontStyle=1;fontSize=14;spacingLeft=5;" parent="21" vertex="1">
          <mxGeometry y="10" width="150" height="20" as="geometry" />
        </mxCell>
        <mxCell id="43" value="" style="line;strokeWidth=3;direction=south;html=1;shadow=0;labelBackgroundColor=none;fillColor=none;gradientColor=none;fontSize=12;fontColor=#4277bb;align=right;strokeColor=#4277BB;" parent="21" vertex="1">
          <mxGeometry x="225" width="10" height="130" as="geometry" />
        </mxCell>
        <mxCell id="44" value="" style="line;strokeWidth=3;direction=south;html=1;shadow=0;labelBackgroundColor=none;fillColor=none;gradientColor=none;fontSize=12;fontColor=#4277BB;align=right;strokeColor=#4277BB;" parent="21" vertex="1">
          <mxGeometry x="225" y="320" width="10" height="270" as="geometry" />
        </mxCell>
        <mxCell id="46" value="" style="line;strokeWidth=3;direction=south;html=1;shadow=0;labelBackgroundColor=none;fillColor=none;gradientColor=none;fontSize=12;fontColor=#4277BB;align=right;strokeColor=#4277BB;" parent="21" vertex="1">
          <mxGeometry x="820" y="350" width="10" height="240" as="geometry" />
        </mxCell>
        <mxCell id="47" value="" style="line;strokeWidth=3;direction=south;html=1;shadow=0;labelBackgroundColor=none;fillColor=none;gradientColor=none;fontSize=12;fontColor=#4277BB;align=right;strokeColor=#4277BB;" parent="21" vertex="1">
          <mxGeometry x="820" width="10" height="240" as="geometry" />
        </mxCell>
        <mxCell id="48" value="WEB SERVER" style="text;html=1;align=left;verticalAlign=middle;fontColor=#4277BB;shadow=0;dashed=0;strokeColor=none;fillColor=none;labelBackgroundColor=none;fontStyle=1;fontSize=14;spacingLeft=5;" parent="21" vertex="1">
          <mxGeometry x="230" y="10" width="150" height="20" as="geometry" />
        </mxCell>
        <mxCell id="49" value="ENTERPRISE NETWORK" style="text;html=1;align=left;verticalAlign=middle;fontColor=#4277BB;shadow=0;dashed=0;strokeColor=none;fillColor=none;labelBackgroundColor=none;fontStyle=1;fontSize=14;spacingLeft=5;" parent="21" vertex="1">
          <mxGeometry x="825" y="10" width="185" height="20" as="geometry" />
        </mxCell>
        <mxCell id="50" value="Application component" style="rounded=0;html=1;shadow=0;labelBackgroundColor=none;strokeColor=none;strokeWidth=2;fillColor=#EBC01A;gradientColor=none;fontSize=12;fontColor=#4277BB;align=left;labelPosition=right;verticalLabelPosition=middle;verticalAlign=middle;spacingLeft=5;" parent="21" vertex="1">
          <mxGeometry x="20" y="580" width="20" height="10" as="geometry" />
        </mxCell>
        <mxCell id="51" value="Infrastructure services" style="rounded=0;html=1;shadow=0;labelBackgroundColor=none;strokeColor=none;strokeWidth=2;fillColor=#8DC642;gradientColor=none;fontSize=12;fontColor=#4277BB;align=left;labelPosition=right;verticalLabelPosition=middle;verticalAlign=middle;spacingLeft=5;" parent="21" vertex="1">
          <mxGeometry x="20" y="600" width="20" height="10" as="geometry" />
        </mxCell>
        <mxCell id="52" value="Management" style="rounded=0;html=1;shadow=0;labelBackgroundColor=none;strokeColor=none;strokeWidth=2;fillColor=#0DB39D;gradientColor=none;fontSize=12;fontColor=#4277BB;align=left;labelPosition=right;verticalLabelPosition=middle;verticalAlign=middle;spacingLeft=5;" parent="21" vertex="1">
          <mxGeometry x="20" y="620" width="20" height="10" as="geometry" />
        </mxCell>
        <mxCell id="53" value="Data store" style="rounded=0;html=1;shadow=0;labelBackgroundColor=none;strokeColor=none;strokeWidth=2;fillColor=#335D81;gradientColor=none;fontSize=12;fontColor=#4277BB;align=left;labelPosition=right;verticalLabelPosition=middle;verticalAlign=middle;spacingLeft=5;" parent="21" vertex="1">
          <mxGeometry x="20" y="640" width="20" height="10" as="geometry" />
        </mxCell>
        <mxCell id="54" value="Analytics" style="rounded=0;html=1;shadow=0;labelBackgroundColor=none;strokeColor=none;strokeWidth=2;fillColor=#744399;gradientColor=none;fontSize=12;fontColor=#4277BB;align=left;labelPosition=right;verticalLabelPosition=middle;verticalAlign=middle;spacingLeft=5;" parent="21" vertex="1">
          <mxGeometry x="20" y="660" width="20" height="10" as="geometry" />
        </mxCell>
        <mxCell id="55" value="Device capabilities" style="rounded=0;html=1;shadow=0;labelBackgroundColor=none;strokeColor=none;strokeWidth=2;fillColor=#A72870;gradientColor=none;fontSize=12;fontColor=#4277BB;align=left;labelPosition=right;verticalLabelPosition=middle;verticalAlign=middle;spacingLeft=5;" parent="21" vertex="1">
          <mxGeometry x="20" y="680" width="20" height="10" as="geometry" />
        </mxCell>
        <mxCell id="56" value="Security" style="rounded=0;html=1;shadow=0;labelBackgroundColor=none;strokeColor=none;strokeWidth=2;fillColor=#E52134;gradientColor=none;fontSize=12;fontColor=#4277BB;align=left;labelPosition=right;verticalLabelPosition=middle;verticalAlign=middle;spacingLeft=5;" parent="21" vertex="1">
          <mxGeometry x="20" y="700" width="20" height="10" as="geometry" />
        </mxCell>
        <mxCell id="EjRFLkqe3DR_ftD8AzSj-68" style="edgeStyle=orthogonalEdgeStyle;rounded=0;orthogonalLoop=1;jettySize=auto;html=1;exitX=1;exitY=0.5;exitDx=0;exitDy=0;entryX=0;entryY=0.25;entryDx=0;entryDy=0;fontSize=16;fontColor=#4277bb;curved=1;strokeColor=#4277bb;strokeWidth=2;" edge="1" parent="21" source="EjRFLkqe3DR_ftD8AzSj-62" target="EjRFLkqe3DR_ftD8AzSj-64">
          <mxGeometry relative="1" as="geometry" />
        </mxCell>
        <mxCell id="EjRFLkqe3DR_ftD8AzSj-79" value="&lt;i&gt;访问&lt;/i&gt;" style="edgeLabel;html=1;align=center;verticalAlign=middle;resizable=0;points=[];fontSize=16;fontColor=#4277bb;" vertex="1" connectable="0" parent="EjRFLkqe3DR_ftD8AzSj-68">
          <mxGeometry x="-0.0806" y="3" relative="1" as="geometry">
            <mxPoint x="1" as="offset" />
          </mxGeometry>
        </mxCell>
        <mxCell id="EjRFLkqe3DR_ftD8AzSj-62" value="用户" style="shape=image;verticalLabelPosition=bottom;verticalAlign=top;aspect=fixed;image=data:image/svg+xml,PHN2ZyB4bWxucz0iaHR0cDovL3d3dy53My5vcmcvMjAwMC9zdmciIHhtbG5zOnhsaW5rPSJodHRwOi8vd3d3LnczLm9yZy8xOTk5L3hsaW5rIiB2ZXJzaW9uPSIxLjEiIGlkPSJMYXllcl8xIiB4PSIwcHgiIHk9IjBweCIgd2lkdGg9IjQ4cHgiIGhlaWdodD0iNDhweCIgdmlld0JveD0iMCAwIDQ4IDQ4IiBlbmFibGUtYmFja2dyb3VuZD0ibmV3IDAgMCA0OCA0OCIgeG1sOnNwYWNlPSJwcmVzZXJ2ZSI+JiN4YTs8ZyBpZD0iY29sb3JfMTZfIj4mI3hhOwk8Zz4mI3hhOwkJPHBhdGggZmlsbD0iI0ZGREE4RSIgZD0iTTE2LjAzNCw2LjEwOUMxNi4wNTcsNi4yMzcsMTYuMDgyLDYuMjcxLDE2LjAzNCw2LjEwOUwxNi4wMzQsNi4xMDl6IE0zNy45NjYsNi4xMDkgICAgQzM3LjkxOCw2LjI3MSwzNy45NDMsNi4yMzcsMzcuOTY2LDYuMTA5TDM3Ljk2Niw2LjEwOXogTTM3LDVIMTdjLTEuMDI2LDAtMS4wMTksMC43ODYtMC45NjgsMS4wOTYgICAgQzE2LjI3Miw2LjgxNywxNy45MDgsMTEuNzI4LDE4LDEydjEwYzAsNC42MDMsNC40NDQsOCw5LDhzOS0zLjM5Nyw5LThWMTJsMS45NjgtNS45MDRDMzguMDE5LDUuNzg2LDM4LjAyNiw1LDM3LDV6IE0zNy45NjgsNi4wOTYgICAgYy0wLjAwMSwwLjAwNS0wLjAwMSwwLjAwOS0wLjAwMiwwLjAxNEMzNy45NzUsNi4wNzksMzcuOTg1LDYuMDQ1LDM4LDZMMzcuOTY4LDYuMDk2eiBNMTYuMDM0LDYuMTA5ICAgIGMtMC4wMDEtMC4wMDQtMC4wMDEtMC4wMDktMC4wMDItMC4wMTNDMTYuMDEzLDYuMDM5LDE2LDYsMTYsNkMxNi4wMTUsNi4wNDUsMTYuMDI1LDYuMDc5LDE2LjAzNCw2LjEwOXoiLz4mI3hhOwk8L2c+JiN4YTs8L2c+JiN4YTs8ZyBpZD0ib3V0bGluZV8zMV8iPiYjeGE7CTxnPiYjeGE7CQk8cGF0aCBmaWxsLXJ1bGU9ImV2ZW5vZGQiIGNsaXAtcnVsZT0iZXZlbm9kZCIgZmlsbD0iIzM4NEQ2OCIgZD0iTTEyLjEwMywzLjQ3MWwtMC4wNTItMC4xNTVsMC4wMDUtMC4wMDIgICAgQzEyLjA4LDMuMzg5LDEyLjA5NCwzLjQzNiwxMi4xMDMsMy40NzFsMS45NDgsNS44NDVsMC4wMDUtMC4wMDJjMC4wODUsMC4yNTUsMC4yNzIsMC40NTQsMC41MDksMC41NzIgICAgQzE0LjIwMywxMC44NTYsMTQsMTEuOTAzLDE0LDEzdjdjMCw0Ljk3MSw1LjAyOSw5LDEwLDlzMTAtNC4wMjksMTAtOXYtN2MwLTEuMDU0LTAuMTg5LTIuMDYyLTAuNTI0LTNINDFjMC41NTMsMCwxLTAuNDQ3LDEtMSAgICBzLTAuNDQ3LTEtMS0xaC02LjYxM2wxLjUxMS00LjUyOWMwLjAwOS0wLjAzNiwwLjAyMi0wLjA4MywwLjA0Ny0wLjE1NmwwLjAwNSwwLjAwMmwtMC4wNTIsMC4xNTRDMzUuNzk3LDMuODc2LDM2LjU3MywyLDM1LDJIMTMgICAgQzExLjQyNiwyLDEyLjIwMiwzLjg3NSwxMi4xMDMsMy40NzF6IE0zMiwyMGMwLDMuODY2LTQuMTM0LDctOCw3cy04LTMuMTM0LTgtN3YtN2MwLTEuMDc3LDAuMjU0LTIuMDkxLDAuNjktM2gxNC42MTggICAgQzMxLjc0NiwxMC45MDksMzIsMTEuOTIzLDMyLDEzVjIweiBNMzMuNjEzLDRsLTEuMzM0LDRIMTUuNzIxbC0xLjMzNC00SDMzLjYxM3ogTTM2LDMzSDEyQzYuNDc3LDMzLDIsMzcuNDc4LDIsNDN2MiAgICBjMCwwLjU1MywwLjQ0NywxLDEsMXMxLTAuNDQ3LDEtMXYtMmMwLTQuNDE4LDMuNTgyLTgsOC04aDI0YzQuNDE4LDAsOCwzLjU4Miw4LDh2MmMwLDAuNTUzLDAuNDQ3LDEsMSwxczEtMC40NDcsMS0xdi0yICAgIEM0NiwzNy40NzgsNDEuNTIzLDMzLDM2LDMzeiBNMjQsMjFjMC41NTMsMCwxLTAuNDQ3LDEtMXYtNGMwLTAuNTUzLTAuNDQ3LTEtMS0xcy0xLDAuNDQ3LTEsMXY0QzIzLDIwLjU1MywyMy40NDcsMjEsMjQsMjF6ICAgICBNMjgsMTNjLTAuNTUzLDAtMSwwLjQ0Ny0xLDFzMC40NDcsMSwxLDFzMS0wLjQ0NywxLTFTMjguNTUzLDEzLDI4LDEzeiBNMjAsMTVjMC41NTMsMCwxLTAuNDQ3LDEtMXMtMC40NDctMS0xLTFzLTEsMC40NDctMSwxICAgIFMxOS40NDcsMTUsMjAsMTV6IE0yOCwyMWMtMC4yODUsMC0wLjUzOSwwLjEyMy0wLjcyMiwwLjMxNEMyNi41NDksMjIuMDM3LDI1LjA5NiwyMywyNCwyM2MtMS4xMDQsMC0yLjU3My0xLjAxLTMuMjk3LTEuNzM0ICAgIGMwLDAtMC4xNzgtMC4yNjYtMC43MDMtMC4yNjZjLTAuNTUzLDAtMSwwLjQ0Ny0xLDFjMCwwLjMxNiwwLjE1NiwwLjU4NywwLjM4NiwwLjc3QzIwLjQ4OCwyMy44MzMsMjIuMzg5LDI1LDI0LDI1ICAgIGMxLjY1NiwwLDMuNjI1LTEuMjAzLDQuNzExLTIuMjg5bC0wLjAwNC0wLjAwNEMyOC44ODksMjIuNTI2LDI5LDIyLjI3NiwyOSwyMkMyOSwyMS40NDcsMjguNTUzLDIxLDI4LDIxeiIvPiYjeGE7CTwvZz4mI3hhOzwvZz4mI3hhOzwvc3ZnPg==;fontSize=16;fontColor=#4277bb;" vertex="1" parent="21">
          <mxGeometry x="61" y="250" width="89" height="89" as="geometry" />
        </mxCell>
        <mxCell id="EjRFLkqe3DR_ftD8AzSj-74" style="edgeStyle=orthogonalEdgeStyle;curved=1;rounded=0;orthogonalLoop=1;jettySize=auto;html=1;exitX=1;exitY=0.5;exitDx=0;exitDy=0;entryX=0;entryY=0.5;entryDx=0;entryDy=0;strokeColor=#4277bb;strokeWidth=2;fontSize=16;fontColor=#4277bb;" edge="1" parent="21" source="EjRFLkqe3DR_ftD8AzSj-64" target="EjRFLkqe3DR_ftD8AzSj-70">
          <mxGeometry relative="1" as="geometry" />
        </mxCell>
        <mxCell id="EjRFLkqe3DR_ftD8AzSj-81" value="API 请求" style="edgeLabel;html=1;align=center;verticalAlign=middle;resizable=0;points=[];fontSize=16;fontColor=#4277bb;" vertex="1" connectable="0" parent="EjRFLkqe3DR_ftD8AzSj-74">
          <mxGeometry x="0.036" y="3" relative="1" as="geometry">
            <mxPoint as="offset" />
          </mxGeometry>
        </mxCell>
        <mxCell id="EjRFLkqe3DR_ftD8AzSj-78" style="edgeStyle=orthogonalEdgeStyle;curved=1;rounded=0;orthogonalLoop=1;jettySize=auto;html=1;entryX=0.5;entryY=0;entryDx=0;entryDy=0;strokeColor=#4277bb;strokeWidth=2;fontSize=16;fontColor=#4277bb;" edge="1" parent="21" source="EjRFLkqe3DR_ftD8AzSj-64" target="EjRFLkqe3DR_ftD8AzSj-62">
          <mxGeometry relative="1" as="geometry" />
        </mxCell>
        <mxCell id="EjRFLkqe3DR_ftD8AzSj-80" value="&lt;i&gt;响应页面&lt;/i&gt;" style="edgeLabel;html=1;align=center;verticalAlign=middle;resizable=0;points=[];fontSize=16;fontColor=#4277bb;" vertex="1" connectable="0" parent="EjRFLkqe3DR_ftD8AzSj-78">
          <mxGeometry x="-0.0708" y="24" relative="1" as="geometry">
            <mxPoint as="offset" />
          </mxGeometry>
        </mxCell>
        <mxCell id="EjRFLkqe3DR_ftD8AzSj-64" value="前端服务器" style="shape=image;verticalLabelPosition=bottom;verticalAlign=top;aspect=fixed;image=data:image/svg+xml,PHN2ZyB4bWxucz0iaHR0cDovL3d3dy53My5vcmcvMjAwMC9zdmciIHhtbG5zOnhsaW5rPSJodHRwOi8vd3d3LnczLm9yZy8xOTk5L3hsaW5rIiB2ZXJzaW9uPSIxLjEiIGlkPSJMYXllcl8xIiB4PSIwcHgiIHk9IjBweCIgd2lkdGg9IjQ4cHgiIGhlaWdodD0iNDhweCIgdmlld0JveD0iMCAwIDQ4IDQ4IiBlbmFibGUtYmFja2dyb3VuZD0ibmV3IDAgMCA0OCA0OCIgeG1sOnNwYWNlPSJwcmVzZXJ2ZSI+JiN4YTs8ZyBpZD0iRWxsaXBzZV82X2NvcHkiPiYjeGE7CTxnPiYjeGE7CQk8cGF0aCBmaWxsPSIjRkZEQThFIiBkPSJNNDMuMTM3LDE1LjcyOEM0MS4wMjEsMTguNTc4LDM4LjUwNiwyMSwzOC41LDIxQzM4LjQ4LDIxLDMxLDEzLjc5NywzMSw5LjYgICAgYzAtMC45OTIsMC4xOTMtMS45MzgsMC41MzUtMi44MDdDMjkuNzc1LDYuMjg3LDI3LjkyMiw2LDI2LDZDMTQuOTU0LDYsNiwxNC45NTQsNiwyNnM4Ljk1NCwyMCwyMCwyMHMyMC04Ljk1NCwyMC0yMCAgICBDNDYsMjIuMjM4LDQ0Ljk0MiwxOC43MzIsNDMuMTM3LDE1LjcyOHoiLz4mI3hhOwk8L2c+JiN4YTs8L2c+JiN4YTs8ZyBpZD0iRWxsaXBzZV82Ij4mI3hhOwk8Zz4mI3hhOwkJPHBhdGggZmlsbD0iIzM4NEQ2OCIgZD0iTTM1LDE0YzIuMjA5LDAsNC0xLjc5MSw0LTRzLTEuNzkxLTQtNC00cy00LDEuNzkxLTQsNFMzMi43OTEsMTQsMzUsMTR6IE0zNSw4YzEuMTA0LDAsMiwwLjg5NiwyLDIgICAgcy0wLjg5NiwyLTIsMnMtMi0wLjg5Ni0yLTJTMzMuODk2LDgsMzUsOHogTTQ0LDE2Yy0wLjE4OC0wLjU4NC0wLjQ0Ny0xLTEtMWMtMS4yMzgsMC0xLjA3OCwxLjAzNS0wLjc3LDEuNjEzICAgIGMwLjcwMSwxLjg3OSwxLjYyOSw0LjQ5MywxLjcyMyw2LjM4N2gtNy4wNjRsLTEuMTc0LDEuMTc1Yy0wLjQwMywwLjQwMy0xLjA1NywwLjQwMy0xLjQ2MSwwTDMzLjA4LDIzSDI1di05YzAuNTUzLDAsMS0wLjQ0NywxLTEgICAgcy0wLjQ0Ny0xLTEtMVY1YzAuNTUzLDAsMS0wLjQ0NywxLTFjMC4xNSwwLjAxOCwwLjg1Mi0wLjAyMSwxLDBjMC41NTMsMCwxLTAuNDQ3LDEtMXMtMC40NDctMS0xLTFoLTNDMTEuODUsMiwyLDExLjg1LDIsMjQgICAgczkuODUsMjIsMjIsMjJzMjItOS44NSwyMi0yMkM0NiwyMS41NDYsNDQuOTk4LDE3LjkyLDQ0LDE2eiBNMjEuNjA0LDQuMTU3QzE4LjM2Niw1Ljk4OSwxNS43OTQsOC43MjYsMTMuOTksMTJIOC4wMDkgICAgQzExLjIwNiw3Ljc1NCwxNi4wNTUsNC44MiwyMS42MDQsNC4xNTd6IE02LjY5OSwxNGg2LjMxM2MtMS4xODYsMi43NjEtMS44NjUsNS44MTktMS45ODMsOUg0LjA0NyAgICBDNC4yMDksMTkuNzI5LDUuMTQ5LDE2LjY3LDYuNjk5LDE0eiBNNC4wNDcsMjVoNi45ODJjMC4xMTksMy4xODEsMC43OTcsNi4yMzksMS45ODMsOUg2LjY5OUM1LjE0OSwzMS4zMyw0LjIwOSwyOC4yNzEsNC4wNDcsMjV6ICAgICBNOC4wMDksMzZoNS45ODFjMS44MDQsMy4yNzQsNC4zNzYsNi4wMTEsNy42MTMsNy44NDNDMTYuMDU1LDQzLjE4LDExLjIwNiw0MC4yNDYsOC4wMDksMzZ6IE0yMyw0Mi41MDkgICAgYy0yLjg0OC0xLjQ4Ny01LjEzMS0zLjc1OS02Ljc5NC02LjUwOUgyM1Y0Mi41MDl6IE0yMywzNGgtNy44NjVjLTEuMjY2LTIuNzM2LTEuOTc5LTUuODE4LTIuMTA1LTlIMjNWMzR6IE0yMywyM2gtOS45NyAgICBjMC4xMjUtMy4xODIsMC44MzktNi4yNjQsMi4xMDUtOUgyM1YyM3ogTTIzLDEyaC02Ljc5NEMxNy44NjksOS4yNSwyMC4xNTIsNi45NzgsMjMsNS40OTFWMTJ6IE0yNSwyNWg5Ljk3ICAgIGMtMC4xMjUsMy4xODItMC44MzksNi4yNjQtMi4xMDQsOUgyNVYyNXogTTI1LDM2aDYuNzk0Yy0xLjY2MywyLjc1LTMuOTQ2LDUuMDIxLTYuNzk0LDYuNTA5VjM2eiBNMjYuMzk2LDQzLjg0MyAgICBjMy4yMzctMS44MzIsNS44MDktNC41NjgsNy42MTMtNy44NDNoNS45OEMzNi43OTQsNDAuMjQ2LDMxLjk0NSw0My4xOCwyNi4zOTYsNDMuODQzeiBNNDEuMzAxLDM0aC02LjMxMyAgICBjMS4xODYtMi43NjEsMS44NjQtNS44MTksMS45ODItOWg2Ljk4MkM0My43OTEsMjguMjcxLDQyLjg1MSwzMS4zMyw0MS4zMDEsMzR6IE0zNSwyMmMwLjAxMiwwLDgtNy41ODIsOC0xMnMtMy41ODItOC04LTggICAgcy04LDMuNTgyLTgsOFMzNC45OCwyMiwzNSwyMnogTTM1LDRjMy4zMTMsMCw2LDIuNjg3LDYsNnMtNS45NjgsOS02LDljLTAuMDAxLDAtNi01LjY4Ny02LTlTMzEuNjg2LDQsMzUsNHoiLz4mI3hhOwk8L2c+JiN4YTs8L2c+JiN4YTs8L3N2Zz4=;fontColor=#4277bb;fontSize=16;fontStyle=0" vertex="1" parent="21">
          <mxGeometry x="380" y="100" width="89" height="89" as="geometry" />
        </mxCell>
        <mxCell id="EjRFLkqe3DR_ftD8AzSj-84" style="edgeStyle=orthogonalEdgeStyle;curved=1;rounded=0;orthogonalLoop=1;jettySize=auto;html=1;entryX=0.5;entryY=0;entryDx=0;entryDy=0;strokeColor=#4277bb;strokeWidth=2;fontSize=16;fontColor=#4277bb;" edge="1" parent="21" source="EjRFLkqe3DR_ftD8AzSj-70" target="12">
          <mxGeometry relative="1" as="geometry" />
        </mxCell>
        <mxCell id="EjRFLkqe3DR_ftD8AzSj-70" value="后端服务器" style="shape=image;verticalLabelPosition=bottom;verticalAlign=top;aspect=fixed;image=data:image/svg+xml,PHN2ZyB4bWxucz0iaHR0cDovL3d3dy53My5vcmcvMjAwMC9zdmciIHhtbG5zOnhsaW5rPSJodHRwOi8vd3d3LnczLm9yZy8xOTk5L3hsaW5rIiB2ZXJzaW9uPSIxLjEiIGlkPSJMYXllcl8xIiB4PSIwcHgiIHk9IjBweCIgd2lkdGg9IjQ4cHgiIGhlaWdodD0iNDhweCIgdmlld0JveD0iMCAwIDQ4IDQ4IiBlbmFibGUtYmFja2dyb3VuZD0ibmV3IDAgMCA0OCA0OCIgeG1sOnNwYWNlPSJwcmVzZXJ2ZSI+JiN4YTs8ZyBpZD0iY29sb3IiPiYjeGE7CTxnPiYjeGE7CQk8cGF0aCBmaWxsPSIjODk4Q0M1IiBkPSJNNDMuMjUsMTVoLTM2Yy0wLjU1MywwLTEsMC40NDctMSwxdjI2YzAsMC41NTMsMC40NDcsMSwxLDFoMzZjMC41NTMsMCwxLTAuNDQ3LDEtMVYxNiAgICBDNDQuMjUsMTUuNDQ3LDQzLjgwMywxNSw0My4yNSwxNXoiLz4mI3hhOwk8L2c+JiN4YTs8L2c+JiN4YTs8ZyBpZD0ib3V0bGluZSI+JiN4YTsJPGc+JiN4YTsJCTxwYXRoIGZpbGw9IiMzODRENjgiIGQ9Ik00MS4yNSwyMWMtMC41NTMsMC0xLDAuNDQ3LTEsMXYxN2gtMzZWMTNoOGMwLjU1MiwwLDEtMC40NDgsMS0xYzAtMC41NTMtMC40NDgtMS0xLTFoLTkgICAgYy0wLjU1MywwLTEsMC40NDctMSwxdjI4YzAsMC41NTMsMC40NDcsMSwxLDFoMzhjMC41NTIsMCwxLTAuNDQ3LDEtMVYyMkM0Mi4yNSwyMS40NDcsNDEuODAyLDIxLDQxLjI1LDIxeiBNNDUuOTQzLDExLjI3OCAgICBsLTUuOTExLTUuOTkzYy0wLjQwNy0wLjM4MS0xLjA2OS0wLjM4MS0xLjQ3OCwwYy0wLjQwOCwwLjM4Mi0wLjQwOCwxLDAsMS4zODFMNDIuNzgyLDExSDI0LjI1Yy03LjczMiwwLTE0LDYuMjY4LTE0LDE0djQgICAgYzAsMC41NTMsMC40NDcsMSwxLDFzMS0wLjQ0NywxLTF2LTRjMC02LjYyNyw1LjM3Mi0xMiwxMi0xMmgxOC40ODJsLTQuMTc4LDQuMzMzYy0wLjQwOCwwLjM4Mi0wLjQwOCwxLDAsMS4zODIgICAgYzAuNDA4LDAuMzgxLDEuMDcsMC4zODEsMS40NzgsMGw1LjkxMS02LjA1NkM0Ni4zNTIsMTIuMjc3LDQ2LjM1MiwxMS42NTksNDUuOTQzLDExLjI3OHoiLz4mI3hhOwk8L2c+JiN4YTs8L2c+JiN4YTs8L3N2Zz4=;fontSize=16;fontColor=#4277bb;" vertex="1" parent="21">
          <mxGeometry x="372" y="370" width="105" height="105" as="geometry" />
        </mxCell>
        <mxCell id="EjRFLkqe3DR_ftD8AzSj-85" style="edgeStyle=orthogonalEdgeStyle;curved=1;rounded=0;orthogonalLoop=1;jettySize=auto;html=1;entryX=0;entryY=0.75;entryDx=0;entryDy=0;strokeColor=#4277bb;strokeWidth=2;fontSize=16;fontColor=#4277bb;" edge="1" parent="21" source="12" target="EjRFLkqe3DR_ftD8AzSj-70">
          <mxGeometry relative="1" as="geometry" />
        </mxCell>
      </root>
    </mxGraphModel>
  </diagram>
</mxfile>
